<?xml version="1.0" encoding="utf-8"?>
<svg version="1.1" id="Layer_1" xmlns="http://www.w3.org/2000/svg" xmlns:xlink="http://www.w3.org/1999/xlink" x="0px" y="0px"
	 viewBox="0 0 1920 1440" enable-background="new 0 0 1920 1440" xml:space="preserve">
<g>
	<path fill="#6E2A8F" stroke="#6E2A8F" d="M542.36,505.32c10.36-2.74,20.86-5.61,31.66-5.68c15.04-0.25,29.95,2.11,44.89,3.47
		c19.61,3.08,39.58,4.61,58.65,10.4c18.1,4.87,35.04,13.02,52.48,19.72c8.44,4.15,17.03,7.97,25.42,12.24
		c9.7,4.92,19.95,8.89,28.97,15.06c9.23,6.28,18.15,13.02,26.64,20.27c11.62,9.88,24.08,18.7,36.14,28.01
		c10.01,8.2,20.59,15.69,31.77,22.22c11.5,7.33,23.99,12.88,36.24,18.82c9.37,4.97,19.1,9.22,29.03,12.97
		c-14.55,0.38-28.9-2.26-43.32-3.7c-11.9-1.46-23.95-1.84-35.69-4.4c-11.49-2.57-22.87-5.71-34.54-7.37
		c-17.52-2.54-34.52-7.81-52.1-9.92c-11.12-1.76-22.4-1.52-33.59-2.37c-11.54-0.89-23.1-1.35-34.6-2.53
		c-22.23-1.19-44.48-2.4-66.57-5.22c-15.51-1.98-31.14-2.53-46.72-3.72c-10.36-0.75-20.75-0.33-31.12-0.46
		c-12.37-0.15-24.7,0.87-37.01,1.88c-10.53,0.96-21.14,1.88-31.4,4.56c-15.48,4.17-30.98,8.33-46.74,11.27
		c-11.76,2.22-23.8,2.18-35.56,4.4c-11.84,1.91-23.49,4.82-35.33,6.73c-12.79,1.99-25.48,4.61-38.25,6.72
		c-8.73,1.3-17.3,3.41-25.95,5.09c-17.01,3.56-34.63,3.6-51.33,8.71c-17.27,4.57-32.99,13.29-49.77,19.21
		c-17.15,6.53-33.68,14.89-51.54,19.43c-10.24,2.47-20.82,2.9-31.14,4.94c-10.15,1.8-19.92,5.34-30.14,6.79
		c-18.11,2.46-35.88,6.96-54.07,8.89c-9.56,1.11-19.21,0.78-28.8,0.22c-6.37-0.49-12.81-0.99-18.97-2.78V594.56
		c6.55,6.64,13.85,12.54,21.37,18.05c8.96,6.58,19.21,10.96,29.05,15.98c9.78,4.97,20.36,8.47,31.26,9.82
		c8.9,1.13,17.84,2.01,26.73,3.2c9.18,1.09,18.37,2.95,27.66,2.27c9.39-0.61,18.75-1.63,28.11-2.6c14.55-1.84,29.12-4.5,43.85-4.04
		c12.58,0.55,25.13-0.9,37.57-2.61c15.22-1.99,29.59-7.6,44.31-11.67c14.16-4.75,28.62-9.03,41.8-16.2
		c17.76-9.34,34.42-20.62,52.34-29.66c16.89-8.82,34.05-17.11,50.78-26.22c10-4.74,19.88-9.74,30.11-13.98
		c17.16-7.11,34.27-14.35,51.4-21.56C524.78,511.43,533.33,507.68,542.36,505.32z"/>
	<path fill="#451762" stroke="#451762" d="M1655.84,539.81c10.34-1.13,20.78-1.61,31.17-0.84c13.98,1.02,27.93,2.89,41.98,2.73
		c9.6-0.17,19.21,0.8,28.81,0.1c11.06-0.58,22.15-0.12,33.21-0.91c9.98-0.67,19.98,0.06,29.95,0.63c11.22,0.87,22.2,3.56,33.04,6.49
		c8.32,2.24,16.88,3.44,25.22,5.63c13.32,3.38,27.07,4.57,40.78,4.78v321.9c-3.38-0.23-6.75-0.49-10.1-0.74
		c-18.73-1-36.4-7.73-54.02-13.54c-17.88-6.68-35.94-12.82-53.96-19.09c-18.77-6.4-35.63-17.09-53.67-25.14
		c-10.34-4.47-20.11-10.12-30.39-14.69c-15.81-7.09-31.83-13.74-47.21-21.75c-14.86-7.79-30.61-13.8-46.79-18.21
		c-23.65-7.06-48.07-12.38-72.86-12.37c-12.39,0.15-24.84,0.77-37.18-0.62c-19.45-2.62-38.6-7.04-57.95-10.24
		c-10.86-1.76-21.79-2.96-32.69-4.34c-24.49-3.21-48.46-9.97-73.17-11.54c-15.34-1.17-30.6-3.33-45.98-3.99
		c-22.03-0.69-44-2.67-66.04-2.86c-22.53-0.03-44.62,4.75-66.83,7.81c-9.38,1.68-18.9,2.38-28.34,3.73
		c-13.89,1.53-27.9,2.05-41.69,4.46c-11.34,2.06-22.79,3.45-34.06,5.91c-32.75,7.84-66.69,5.47-100.06,5.82
		c-34.33-0.5-68.8-0.37-102.91,4.02c-16.03,2.64-31.79,6.97-48.04,8.22c-17.74,2.55-35.37,5.96-52.81,10.11
		c-23.55,4.56-46.52,11.73-70.17,15.8c-8.79,1.52-17.31,4.28-26.07,5.92c-15.79,3.12-31.92,3.42-47.86,5.32
		c-11.79,1.49-23.69,1.76-35.46,3.33c-10.55,1.34-21.1,2.75-31.72,3.4c-11.35,0.68-22.57,3.03-33.97,3.07
		c-9.39,0.03-18.8,0.18-28.15-0.79c-11.36-1.06-22.58-3.33-33.98-3.97c-10.23-0.57-20.4-1.96-30.61-2.79
		c-14.42-1.12-28.75-3.5-43.25-3.48c-17.67,0.03-35.35,0.32-53.02,0.73c-7.99-0.04-15.99,0.14-23.92,1.27
		c-14.96,1.75-30.02,2.98-45.09,2.96c-22.65,1.13-45.54,3.41-67.09,10.89c-10.38,3.7-20.59,7.89-30.69,12.29
		c-5.66,2.45-11.05,5.52-16.79,7.79c-11,0.75-21.79,3.15-32.69,4.64c-21.23,3.01-42.32,7.21-63.76,8.43
		c-16.44,1.06-32.68,3.95-48.96,6.38V729.19c6.16,1.79,12.6,2.29,18.97,2.78c9.59,0.56,19.24,0.89,28.8-0.22
		c18.19-1.93,35.96-6.43,54.07-8.89c10.22-1.45,19.99-4.99,30.14-6.79c10.32-2.04,20.9-2.47,31.14-4.94
		c17.86-4.54,34.39-12.9,51.54-19.43c16.78-5.92,32.5-14.64,49.77-19.21c16.7-5.11,34.32-5.15,51.33-8.71
		c8.65-1.68,17.22-3.79,25.95-5.09c12.77-2.11,25.46-4.73,38.25-6.72c11.84-1.91,23.49-4.82,35.33-6.73
		c11.76-2.22,23.8-2.18,35.56-4.4c15.76-2.94,31.26-7.1,46.74-11.27c10.26-2.68,20.87-3.6,31.4-4.56
		c12.31-1.01,24.64-2.03,37.01-1.88c10.37,0.13,20.76-0.29,31.12,0.46c15.58,1.19,31.21,1.74,46.72,3.72
		c22.09,2.82,44.34,4.03,66.57,5.22c11.5,1.18,23.06,1.64,34.6,2.53c11.19,0.85,22.47,0.61,33.59,2.37
		c17.58,2.11,34.58,7.38,52.1,9.92c11.67,1.66,23.05,4.8,34.54,7.37c11.74,2.56,23.79,2.94,35.69,4.4
		c14.42,1.44,28.77,4.08,43.32,3.7c8.24,0.93,16.57,0.68,24.83,1.46c10.34,0.54,20.61,1.92,30.93,2.65l12.46,1.74
		c18.26-0.84,36.26,3.57,54.52,2.83c12.97-0.21,26.23,0.17,38.81-3.6c7.35-1.11,14.6-2.86,21.61-5.4
		c17.47-5.76,34.69-12.26,51.63-19.44c6.14-2.45,12.24-5,18.12-8.04c4.18-1.39,8.31-2.93,12.46-4.43
		c19.58-7.21,40.26-10.63,60.16-16.79c18.86-5.99,37.98-11.14,57.21-15.77c20.64-4.21,41.51-7.17,62.26-10.79
		c14.42-3.1,28.95-5.82,43.66-7.02c21.13-1.24,42-5.13,63.14-6.2c13.93-0.83,27.39-4.66,40.84-8.12
		c15.06-4.2,30.41-7.29,45.44-11.59c12.7-3.76,25.81-5.71,38.81-8.14C1632.72,544.14,1644.16,541.27,1655.84,539.81z"/>
	<path fill="#AF5BC8" stroke="#AF5BC8" d="M1897.39,525.67c-3.94-0.88-7.73-2.26-11.56-3.44c-9.73-2.07-19.64-3.21-29.24-5.83
		c-11.94-2.73-22.98-8.25-33.64-14.12c-1.64-0.79-3.25-1.61-4.81-2.49c-13.33-8.59-28.72-12.99-43.44-18.49
		c-9.62-3.88-18.97-8.39-28.44-12.58c-7.92-3.52-16.42-5.37-24.76-7.58c-0.48-0.05-1.44-0.14-1.93-0.18
		c-9.1-0.64-18.27-1.67-26.94-4.64c-8.74-2.81-17.57-5.37-26.06-8.88c-9.88-3.77-20.35-5.79-30.13-9.85
		c-10.47-4.04-20.39-9.91-31.67-11.47c-16.16-2.58-32.14-7.27-46.35-15.53c-6.96-3.87-13.63-8.23-20.05-12.93
		c-7.53-5.07-14.92-10.35-21.92-16.14c-7.32-6.09-15.2-11.46-22.88-17.07c-8.3-5.68-17.23-11-27.29-12.71
		c-9.13-1.54-17.96-4.83-27.29-5.02c-10.48-0.34-20.8,1.92-31.17,3.03c-12.05,1.36-23.34,5.94-34.96,9.1
		c-6.85,1.95-13.6,4.4-20.69,5.34c-14.79,2.26-30.04,0.45-44.58,4.45c-11.18,2.99-22.17,6.68-33.39,9.54
		c-7.58,2.03-15.5,1.64-23.21,2.75c-9.68,1.06-19.2,3.44-28.94,3.95c-5.34,0.31-10.7,0.46-15.97,1.36
		c-3.55,0.78-7.02,1.89-10.45,3.05c-8.63,3.29-17.29,6.46-26.1,9.21c-9.36,2.84-17.32,9.26-27.07,10.93
		c-8.78,1.51-17.69,0.27-26.52,0.29c-8.17,0.05-16.12-1.91-24.18-2.86c-11.91-1-23.64-4.47-35.66-3.58
		c-8.25,0.52-16.62,0.04-24.71,1.98c-11.82,2.65-23.42,6.13-35.19,8.98c-10.33,3.37-20.72,6.61-31.05,9.99
		c-14.88,6.1-30.05,12.16-46.15,14c-8.54,1.03-16.95-1.18-25.42-1.79c-6.28-0.49-12.57,0.28-18.71,1.55
		c-20.82,4.49-41.41,11.33-62.93,11.37c-13.56-0.01-27.04,1.96-40.6,1.68c-8.12-0.14-16.15-1.64-24.27-1.79
		c-7.04-0.33-14.09,0.08-21.12-0.24c-9.65-0.39-18.77-3.85-27.92-6.57c-3.53-1.03-6.97-2.34-10.2-4.07
		c-7.49-3.01-14.61-6.79-21.81-10.4c-11.16-5.75-23.37-9.29-35.71-11.35c-21.7-2.93-43.81-8.24-62-20.98
		c-8.26-6.72-16.96-12.92-24.63-20.34c-12.37-11.31-23.06-24.24-34.51-36.44c-13.7-14.34-27.74-28.42-43.35-40.69
		c-14.4-11.14-30.9-21.57-49.71-21.85c-9.88-0.08-19.61,1.64-29.29,3.36c-14.61,1.71-28.54,6.75-42.18,12.01
		c-5.22,2.03-10.58,3.66-16.03,4.91c-11.93,2.71-24.01,6.11-36.36,5.02c-11.37-1.03-22.7-2.54-34.11-3.07
		c-10.02-0.81-20.25-0.11-30.04-2.79c-6.84-1.88-13.61-4.02-20.26-6.49c-9.28-3.13-19.1-4.71-28.9-4.18
		c-17.84,1.02-35.96,2.06-53.6-1.53c-8.22,0.19-16.56,0.11-24.55,2.29c-5.38,1.44-10.75,2.93-16.16,4.25
		c-10.86,2.74-21.14,7.27-31.77,10.73c-6.73,2.21-13.25,5.06-20.11,6.85c-5.88,1.53-11.97,1.7-17.97,2.47
		c-4.92,0.92-9.83,1.97-14.78,2.74v72.45v209.22c6.55,6.64,13.85,12.54,21.37,18.05c8.96,6.58,19.21,10.96,29.05,15.98
		c9.78,4.97,20.36,8.47,31.26,9.82c8.9,1.13,17.84,2.01,26.73,3.2c9.18,1.09,18.37,2.95,27.66,2.27c9.39-0.61,18.75-1.63,28.11-2.6
		c14.55-1.84,29.12-4.5,43.85-4.04c12.58,0.55,25.13-0.9,37.57-2.61c15.22-1.99,29.59-7.6,44.31-11.67
		c14.16-4.75,28.62-9.03,41.8-16.2c17.76-9.34,34.42-20.62,52.34-29.66c16.89-8.82,34.05-17.11,50.78-26.22
		c10-4.74,19.88-9.74,30.11-13.98c17.16-7.11,34.27-14.35,51.4-21.56c8.44-3.91,16.99-7.66,26.02-10.02
		c10.36-2.74,20.86-5.61,31.66-5.68c15.04-0.25,29.95,2.11,44.89,3.47c19.61,3.08,39.58,4.61,58.65,10.4
		c18.1,4.87,35.04,13.02,52.48,19.72c8.44,4.15,17.03,7.97,25.42,12.24c9.7,4.92,19.95,8.89,28.97,15.06
		c9.23,6.28,18.15,13.02,26.64,20.27c11.62,9.88,24.08,18.7,36.14,28.01c10.01,8.2,20.59,15.69,31.77,22.22
		c11.5,7.33,23.99,12.88,36.24,18.82c9.37,4.97,19.1,9.22,29.03,12.97c8.24,0.93,16.57,0.68,24.83,1.46
		c10.34,0.54,20.61,1.92,30.93,2.65c0,0,8.53,2.83,12.46,1.74c18.26-0.84,36.26,3.57,54.52,2.83c12.97-0.21,26.23,0.17,38.81-3.6
		c10.13-4.93,20.69-8.88,31.18-12.98c10.83-4.27,21.07-9.9,32.02-13.9c9.07-3.21,18.56-5.26,28.16-6c4.18-1.39,8.31-2.93,12.46-4.43
		c19.58-7.21,40.26-10.63,60.16-16.79c18.86-5.99,37.98-11.14,57.21-15.77c20.64-4.21,41.51-7.17,62.26-10.79
		c14.42-3.1,28.95-5.82,43.66-7.02c21.13-1.24,42-5.13,63.14-6.2c13.93-0.83,27.39-4.66,40.84-8.12
		c15.06-4.2,30.41-7.29,45.44-11.59c12.7-3.76,25.81-5.71,38.81-8.14c11.58-2.03,23.02-4.9,34.7-6.36
		c10.34-1.13,20.78-1.61,31.17-0.84c13.98,1.02,27.93,2.89,41.98,2.73c9.6-0.17,19.21,0.8,28.81,0.1
		c11.06-0.58,22.15-0.12,33.21-0.91c9.98-0.67,19.98,0.06,29.95,0.63c11.22,0.87,22.2,3.56,33.04,6.49
		c8.32,2.24,16.88,3.44,25.22,5.63c13.32,3.38,27.07,4.57,40.78,4.78v-29.63C1912.49,527.49,1904.8,527.51,1897.39,525.67z"/>
	<path fill="#6F2B8F" stroke="#6F2B8F" d="M1169,641.02c9.07-3.21,18.56-5.26,28.16-6c-5.88,3.04-11.98,5.59-18.12,8.04
		c-16.94,7.18-34.16,13.68-51.63,19.44c-7.01,2.54-14.26,4.29-21.61,5.4c10.13-4.93,20.69-8.88,31.18-12.98
		C1147.81,650.65,1158.05,645.02,1169,641.02z"/>
	<path fill="#260B38" stroke="#260B38" d="M1171.16,729.01c22.21-3.06,44.3-7.84,66.83-7.81c22.04,0.19,44.01,2.17,66.04,2.86
		c15.38,0.66,30.64,2.82,45.98,3.99c24.71,1.57,48.68,8.33,73.17,11.54c10.9,1.38,21.83,2.58,32.69,4.34
		c19.35,3.2,38.5,7.62,57.95,10.24c12.34,1.39,24.79,0.77,37.18,0.62c24.79-0.01,49.21,5.31,72.86,12.37
		c16.18,4.41,31.93,10.42,46.79,18.21c15.38,8.01,31.4,14.66,47.21,21.75c10.28,4.57,20.05,10.22,30.39,14.69
		c18.04,8.05,34.9,18.74,53.67,25.14c18.02,6.27,36.08,12.41,53.96,19.09c17.62,5.81,35.29,12.54,54.02,13.54
		c-10.38,0.8-20.74-0.89-31.11-0.16c-11.29,0.59-22.59-0.73-33.86,0.02c-21.75,0.5-43.46,2.31-65.03,5.05
		c-9.7,0.79-19.13,3.31-28.52,5.71c-20.72,5.47-41.62,10.26-62.65,14.34c-13.64,2.66-27.61,2.51-41.32,4.57
		c-8.93,1.09-17.72,3.01-26.59,4.4c-10.24,1.58-20.25,4.38-30.55,5.63c-11.38,1.94-22.74,4.03-34.15,5.78
		c-20.46,4.32-41.32,6.49-61.71,11.16c-9.54,1.41-18.88,4.07-28.52,4.75c-21.37,1.93-42.73,5.06-63.19,11.72
		c-18.41,5.15-35.45,14.03-53.33,20.64c-22.62,8.06-44.55,17.96-67.31,25.64c-17.95,6.48-36.9,9.46-55.82,11.33
		c-19.7,2.18-38.39,9.53-58.08,11.79c-10.43,1.2-20.64,3.83-31.08,4.93c-12.02,1.93-23.81,5.37-36.01,6.11
		c-11.29,1.7-22.7,1.92-34.07,2.52c-12.29-0.62-24.6-1.28-36.8-2.96c-11.01-1.18-21.84-3.58-32.77-5.27
		c-20.8-3.7-41.15-9.5-61.36-15.59c-18.14-5.78-35.96-12.52-53.84-19.04c-10.7-3.52-21.46-6.86-31.92-11.05
		c-10.02-3.55-19.89-7.61-29.16-12.86c-14.51-8.31-29.89-14.93-44.99-22.04c-16.75-9.66-34.88-16.51-52.37-24.67
		c-21.85-9.7-42.58-21.97-65.3-29.65c-29.46-9.92-59.86-17.45-90.87-20.24c-10.18-1.21-20.42-0.28-30.62-0.49
		c-9.35-0.18-18.76,0.58-28.05-0.76c-28.6-3.63-56.54-11-85.1-14.86c-11.63-1.16-23.19-2.9-34.77-4.44
		c-22.41-3.98-44.7-8.79-67.33-11.45c-12.89-1.14-25.79-2.1-38.65-3.59c-8.31-1-16.71-1.06-25.02-2.03
		c-7.34-0.85-14.73-0.82-22.11-0.84c-13.25-0.51-26.47-1.98-39.74-2.19c-7.85,0.12-15.7-1.08-23.55-0.2
		c-9.11,0.32-18.18,1.11-27.27,1.73c5.74-2.27,11.13-5.34,16.79-7.79c10.1-4.4,20.31-8.59,30.69-12.29
		c21.55-7.48,44.44-9.76,67.09-10.89c15.07,0.02,30.13-1.21,45.09-2.96c7.93-1.13,15.93-1.31,23.92-1.27
		c17.67-0.41,35.35-0.7,53.02-0.73c14.5-0.02,28.83,2.36,43.25,3.48c10.21,0.83,20.38,2.22,30.61,2.79
		c11.4,0.64,22.62,2.91,33.98,3.97c9.35,0.97,18.76,0.82,28.15,0.79c11.4-0.04,22.62-2.39,33.97-3.07
		c10.62-0.65,21.17-2.06,31.72-3.4c11.77-1.57,23.67-1.84,35.46-3.33c15.94-1.9,32.07-2.2,47.86-5.32
		c8.76-1.64,17.28-4.4,26.07-5.92c23.65-4.07,46.62-11.24,70.17-15.8c17.44-4.15,35.07-7.56,52.81-10.11
		c16.25-1.25,32.01-5.58,48.04-8.22c34.11-4.39,68.58-4.52,102.91-4.02c33.37-0.35,67.31,2.02,100.06-5.82
		c11.27-2.46,22.72-3.85,34.06-5.91c13.79-2.41,27.8-2.93,41.69-4.46C1152.26,731.39,1161.78,730.69,1171.16,729.01z"/>
	<path fill="#13051C" stroke="#13051C" d="M1909.9,879.58c-10.38,0.8-20.74-0.89-31.11-0.16c-11.29,0.59-22.59-0.73-33.86,0.02
		c-21.75,0.5-43.46,2.31-65.03,5.05c-9.7,0.79-19.13,3.31-28.52,5.71c-20.72,5.47-41.62,10.26-62.65,14.34
		c-13.64,2.66-27.61,2.51-41.32,4.57c-8.93,1.09-17.72,3.01-26.59,4.4c-10.24,1.58-20.25,4.38-30.55,5.63
		c-11.38,1.94-22.74,4.03-34.15,5.78c-20.46,4.32-41.32,6.49-61.71,11.16c-9.54,1.41-18.88,4.07-28.52,4.75
		c-21.37,1.93-42.73,5.06-63.19,11.72c-18.41,5.15-35.45,14.03-53.33,20.64c-22.62,8.06-44.55,17.96-67.31,25.64
		c-17.95,6.48-36.9,9.46-55.82,11.33c-19.7,2.18-38.39,9.53-58.08,11.79c-10.43,1.2-20.64,3.83-31.08,4.93
		c-12.02,1.93-23.81,5.37-36.01,6.11c-11.29,1.7-22.7,1.92-34.07,2.52c-12.29-0.62-24.6-1.28-36.8-2.96
		c-11.01-1.18-21.84-3.58-32.77-5.27c-20.8-3.7-41.15-9.5-61.36-15.59c-18.14-5.78-35.96-12.52-53.84-19.04
		c-10.7-3.52-21.46-6.86-31.92-11.05c-10.02-3.55-19.89-7.61-29.16-12.86c-14.51-8.31-29.89-14.93-44.99-22.04
		c-16.75-9.66-34.88-16.51-52.37-24.67c-21.85-9.7-42.58-21.97-65.3-29.65c-29.46-9.92-59.86-17.45-90.87-20.24
		c-10.18-1.21-20.42-0.28-30.62-0.49c-9.35-0.18-18.76,0.58-28.05-0.76c-28.6-3.63-56.54-11-85.1-14.86
		c-11.63-1.16-23.19-2.9-34.77-4.44c-22.41-3.98-44.7-8.79-67.33-11.45c-12.89-1.14-25.79-2.1-38.65-3.59
		c-8.31-1-16.71-1.06-25.02-2.03c-7.34-0.85-14.73-0.82-22.11-0.84c-13.25-0.51-26.47-1.98-39.74-2.19
		c-7.85,0.12-15.7-1.08-23.55-0.2c-9.11,0.32-18.18,1.11-27.27,1.73c-11,0.75-21.79,3.15-32.69,4.64
		c-21.23,3.01-42.32,7.21-63.76,8.43c-16.44,1.06-32.68,3.95-48.96,6.38v458.03V1440h1920v-172.96V880.32
		C1916.62,880.09,1913.25,879.83,1909.9,879.58z"/>
</g>
</svg>
