<?xml version="1.0" standalone="no"?>
<!DOCTYPE svg PUBLIC "-//W3C//DTD SVG 20010904//EN"
 "http://www.w3.org/TR/2001/REC-SVG-20010904/DTD/svg10.dtd">
<svg version="1.0" xmlns="http://www.w3.org/2000/svg"
 width="870.000000pt" height="870.000000pt" viewBox="0 0 870.000000 870.000000"
 preserveAspectRatio="xMidYMid meet">
<metadata>
Created by potrace 1.11, written by Peter Selinger 2001-2013
</metadata>
<g transform="translate(0.000000,870.000000) scale(0.100000,-0.100000)"
fill="#f15a2b" stroke="none">
<path d="M4200 8683 c-139 -15 -286 -53 -394 -102 -108 -49 -2809 -1611 -2884
-1668 -245 -186 -451 -531 -507 -850 -22 -130 -23 -3290 0 -3429 51 -316 261
-670 507 -856 40 -31 237 -150 438 -265 436 -251 408 -235 1510 -871 481 -278
902 -518 935 -533 137 -64 362 -109 545 -109 178 0 394 42 534 104 98 44 2818
1616 2894 1674 244 184 456 542 507 855 22 138 22 3286 0 3424 -49 302 -254
655 -488 841 -75 60 43 -9 -1537 903 -718 414 -1340 768 -1382 786 -183 80
-460 119 -678 96z m2960 -3113 l0 -499 -1852 -4 c-2075 -3 -1907 3 -2068 -75
-255 -124 -491 -558 -594 -1088 -13 -71 -28 -159 -31 -197 l-7 -67 1758 2
1759 3 3 443 2 442 500 0 500 0 0 -945 0 -945 -2795 0 -2795 0 0 93 c0 118 24
443 50 666 90 782 279 1449 525 1856 210 348 524 605 883 724 109 35 255 68
362 80 41 5 913 9 1938 10 l1862 1 0 -500z"/>
</g>
</svg>
